<svg t="1719207696887" class="icon" viewBox="0 0 1024 1024" version="1.1" xmlns="http://www.w3.org/2000/svg" p-id="4253" width="256" height="256"><path d="M646.022677 512.096136l350.142243-350.142244c36.857078-36.857078 36.857078-96.74983 0-134.118812s-96.74983-36.857078-134.118812 0L511.903864 377.977323 161.761621 27.83508c-36.857078-36.857078-96.74983-36.857078-134.118812 0-36.857078 36.857078-36.857078 96.74983 0 134.118812L377.785052 512.096136 27.642809 862.238379c-36.857078 36.857078-36.857078 96.74983 0 134.118812 36.857078 36.857078 96.74983 36.857078 134.118812 0l350.142243-350.142243 350.142244 350.142243c36.857078 36.857078 96.74983 36.857078 134.118812 0 36.857078-36.857078 36.857078-96.74983 0-134.118812L646.022677 512.096136z" fill="#040000" p-id="4254"></path></svg>